HIERARCHY
ROOT Hips
{
	OFFSET 0.000000 0.000000 0.000000
	CHANNELS 6 Xposition Yposition Zposition Zrotation Yrotation Xrotation 
	JOINT LHipJoint
	{
		OFFSET 0.000000 0.000000 0.000000
		CHANNELS 3 Zrotation Yrotation Xrotation
		JOINT LeftUpLeg
		{
			OFFSET 1.363060 -1.794630 0.839290
			CHANNELS 3 Zrotation Yrotation Xrotation
			JOINT LeftLeg
			{
				OFFSET 2.448110 -6.726130 0.000000
				CHANNELS 3 Zrotation Yrotation Xrotation
				JOINT LeftFoot
				{
					OFFSET 2.562200 -7.039590 0.000000
					CHANNELS 3 Zrotation Yrotation Xrotation
					JOINT LeftToeBase
					{
						OFFSET 0.157640 -0.433110 2.322550
						CHANNELS 3 Zrotation Yrotation Xrotation
						End Site
						{
							OFFSET 0.000000 0.000000 0.000000
						}
					}
				}
			}
		}
	}
	JOINT RHipJoint
	{
		OFFSET 0.000000 0.000000 0.000000
		CHANNELS 3 Zrotation Yrotation Xrotation
		JOINT RightUpLeg
		{
			OFFSET -1.305520 -1.794630 0.839290
			CHANNELS 3 Zrotation Yrotation Xrotation
			JOINT RightLeg
			{
				OFFSET -2.542530 -6.985550 0.000000
				CHANNELS 3 Zrotation Yrotation Xrotation
				JOINT RightFoot
				{
					OFFSET -2.568260 -7.056230 0.000000
					CHANNELS 3 Zrotation Yrotation Xrotation
					JOINT RightToeBase
					{
						OFFSET -0.164730 -0.452590 2.363150
						CHANNELS 3 Zrotation Yrotation Xrotation
						End Site
						{
							OFFSET 0.000000 0.000000 0.000000
						}
					}
				}
			}
		}
	}
}
MOTION
Frames: 16
Frame Time: 0.008333
-6.221940 12.375760 1.638917 14.868900 -88.818561 41.471398 -8.259795 -3.625660 3.715787 -2.997893 -23.642073 -113.026476 3.660504 6.965796 100.790254 2.795891 3.461652 -38.920459 -2.866600 0.000000 -22.190200 6.960460 4.747806 4.810404 -2.053152 18.379793 -122.483647 -6.389870 -8.315174 106.046316 -0.037517 3.004359 -16.756724 -0.146500 0.000000 -71.838900
-6.357986 12.246236 1.627774 20.457703 -88.418105 36.571444 -8.194064 -3.587812 3.867391 -2.784228 -24.324952 -113.984718 3.861885 7.037372 102.283930 2.851090 3.417852 -39.789397 -2.942500 -0.000000 -22.701900 7.063846 4.902299 4.937441 -2.331192 18.291380 -123.074681 -6.549214 -8.444477 107.313546 -0.215369 2.484991 -18.959363 -0.112400 0.000000 -70.071800
-6.494491 12.123666 1.616190 24.751122 -87.998751 32.955812 -8.141710 -3.563530 4.034337 -2.564369 -24.982509 -114.882069 4.055934 7.104983 103.676109 2.892584 3.343539 -40.547973 -2.991200 0.000000 -23.417900 7.167742 5.026108 5.074088 -2.572187 18.188120 -123.603250 -6.692860 -8.569158 108.507351 -0.400643 2.008484 -21.170480 -0.037400 0.000000 -68.438800
-6.630679 12.009576 1.604263 28.040423 -87.584691 30.324031 -8.104058 -3.549651 4.209376 -2.336872 -25.591347 -115.708568 4.242535 7.167678 104.959396 2.921915 3.255754 -41.189623 -3.018500 -0.000000 -24.322200 7.266806 5.127120 5.216308 -2.786860 18.087164 -124.083718 -6.827148 -8.684584 109.622096 -0.583430 1.588223 -23.258633 0.068600 0.000000 -67.050800
-6.766217 11.905331 1.592329 30.478486 -87.199500 28.516501 -8.084255 -3.543148 4.387825 -2.100027 -26.127438 -116.449170 4.420427 7.224270 106.125823 2.941576 3.170023 -41.720460 -3.031900 -0.000000 -25.363900 7.355680 5.210409 5.360694 -2.978523 18.008915 -124.516643 -6.956625 -8.785062 110.649975 -0.753664 1.227620 -25.113512 0.191100 -0.000000 -66.036500
-6.900631 11.812277 1.580496 32.236011 -86.854167 27.352250 -8.080917 -3.543843 4.563664 -1.858995 -26.579578 -117.084186 4.586690 7.272648 107.168471 2.955287 3.101132 -42.156606 -3.040700 -0.000000 -26.478300 7.433394 5.278674 5.503958 -3.153487 17.962417 -124.904709 -7.085959 -8.867262 111.589927 -0.902097 0.926304 -26.661395 0.314400 0.000000 -65.456700
-7.033682 11.731610 1.568965 33.419152 -86.556091 26.716391 -8.093253 -3.552127 4.731846 -1.619694 -26.941229 -117.595180 4.737100 7.311396 108.081036 2.967679 3.059360 -42.527855 -3.053800 -0.000000 -27.549700 7.499319 5.332740 5.641639 -3.310120 17.954229 -125.234226 -7.215698 -8.928044 112.437789 -1.022602 0.680090 -27.870064 0.425700 -0.000000 -65.325200
-7.165630 11.663968 1.557673 34.181044 -86.303912 26.451674 -8.118791 -3.564740 4.893070 -1.393520 -27.219821 -117.965219 4.867192 7.338151 108.854639 2.982277 3.053100 -42.851260 -3.078100 0.000000 -28.620000 7.556590 5.372885 5.776138 -3.453439 17.980952 -125.498744 -7.344091 -8.966916 113.191339 -1.112964 0.485530 -28.752712 0.516900 0.000000 -65.537699
-7.296495 11.610449 1.546887 34.552994 -86.100121 26.517857 -8.157837 -3.581439 5.043077 -1.190513 -27.414308 -118.174143 4.971622 7.352975 109.485817 3.003209 3.081348 -43.167983 -3.118700 0.000000 -29.519401 7.604864 5.398645 5.901262 -3.569019 18.045048 -125.667282 -7.464124 -8.983059 113.841577 -1.175594 0.335047 -29.353646 0.585600 -0.000000 -66.018200
-7.426817 11.571598 1.536566 34.623239 -85.940115 26.823916 -8.208853 -3.598337 5.183957 -1.020833 -27.534162 -118.210421 5.045721 7.355041 109.967457 3.032219 3.140118 -43.496498 -3.176699 -0.000000 -30.251200 7.647567 5.408387 6.018030 -3.647486 18.141422 -125.714484 -7.566010 -8.977519 114.375024 -1.216320 0.222394 -29.746576 0.634200 0.000000 -66.619200
-7.557208 11.547830 1.526599 34.491945 -85.817065 27.269533 -8.269350 -3.610595 5.317729 -0.894768 -27.590971 -118.067821 5.084983 7.343933 110.291996 3.069817 3.220380 -43.849788 -3.250100 -0.000001 -30.802500 7.689094 5.400785 6.127267 -3.677842 18.261835 -125.614764 -7.638985 -8.952387 114.777165 -1.242905 0.140841 -30.017249 0.667801 0.000000 -67.216500
-7.688450 11.539445 1.516978 34.196769 -85.726063 27.818977 -8.338978 -3.614297 5.448749 -0.813290 -27.589776 -117.748601 5.087751 7.319729 110.455433 3.113280 3.308752 -44.221308 -3.332200 0.000001 -31.241400 7.732150 5.372441 6.230225 -3.642333 18.403820 -125.341306 -7.671249 -8.909487 115.029801 -1.264282 0.080867 -30.250555 0.694100 0.000000 -67.708500
-7.821340 11.546645 1.507104 33.914726 -85.656037 28.298349 -8.412235 -3.602263 5.579963 -0.788860 -27.547672 -117.251478 5.051605 7.280948 110.448449 3.159409 3.393454 -44.592260 -3.415400 -0.000000 -31.635100 7.784207 5.322732 6.331017 -3.538920 18.548764 -124.879172 -7.653574 -8.851826 115.113609 -1.287583 0.036306 -30.516622 0.719200 0.000000 -68.058000
-7.956480 11.569497 1.497253 33.558601 -85.607695 28.798752 -8.492241 -3.572789 5.718406 -0.800790 -27.454410 -116.600278 4.978850 7.228503 110.266554 3.201024 3.455366 -44.928066 -3.485500 0.000001 -32.094800 7.842190 5.246121 6.430393 -3.344925 18.706688 -124.211730 -7.576030 -8.779624 115.006460 -1.320259 -0.004628 -30.865271 0.750599 0.000000 -68.216700
-8.094734 11.607804 1.487142 33.181862 -85.575998 29.276350 -8.577640 -3.522439 5.868342 -0.841815 -27.311973 -115.808727 4.871923 7.161389 109.905522 3.231323 3.481894 -45.185941 -3.530400 -0.000000 -32.736700 7.907561 5.140183 6.531558 -3.056842 18.871180 -123.338750 -7.434103 -8.693752 114.691510 -1.366185 -0.047151 -31.318612 0.792300 0.000000 -68.185000
-8.236650 11.661625 1.475958 32.967658 -85.550429 29.549822 -8.661074 -3.445541 6.032899 -0.916016 -27.137215 -114.887593 4.732122 7.076972 109.355412 3.245286 3.467629 -45.322184 -3.541700 -0.000000 -33.626400 7.986244 5.005953 6.640712 -2.690743 19.019130 -122.269308 -7.228929 -8.594950 114.155381 -1.425718 -0.093068 -31.866116 0.845000 0.000000 -68.031900
